<?xml version="1.0" encoding="UTF-8"?>
<svg id="Layer_1" xmlns="http://www.w3.org/2000/svg" version="1.1" viewBox="0 0 689.42 265.68">
  <!-- Generator: Adobe Illustrator 29.8.1, SVG Export Plug-In . SVG Version: 2.1.1 Build 2)  -->
  <defs>
    <style>
      .st0 {
        fill: #ff6700;
      }
    </style>
  </defs>
  <path class="st0" d="M210.82,226.37h-110.61V39.31h39.2v151.61h32.08V39.31h39.33v187.06Z"/>
  <path class="st0" d="M267.61,226.37h-39.33V68.93l30.14-29.62h81.76v187.06h-39.2v-61.45h-33.38v61.45ZM300.99,129.35v-54.46h-33.38v54.46h33.38Z"/>
  <path class="st0" d="M430.48,226.37l-23.29-67.66h-10.35v67.66h-39.2V65.7l28.46-26.39h80.08v118.89h-21.22l24.84,68.18h-39.33ZM426.99,123.65v-48.77h-30.14v48.77h30.14Z"/>
  <path class="st0" d="M589.21,74.88h-35.32v151.49h-39.46V74.88h-36.61v-35.58h111.38v35.58Z"/>
</svg>