<?xml version="1.0" encoding="UTF-8"?>
<svg id="Layer_1" xmlns="http://www.w3.org/2000/svg" version="1.1" viewBox="0 0 689.42 265.68">
  <!-- Generator: Adobe Illustrator 29.8.1, SVG Export Plug-In . SVG Version: 2.1.1 Build 2)  -->
  <defs>
    <style>
      .st0 {
        fill: #ff6700;
      }

      .st1 {
        fill: #fff;
      }
    </style>
  </defs>
  <g>
    <path class="st1" d="M344.33,198.76c-3.68-.06-7.33-.5-10.84-1.32l-8.72-2.01-4.19-.95c-.54-.13-1.11-.26-1.73-.4-.77-.18-1.6-.37-2.49-.58l-1.25-.28c-2.11-.47-4.54-1.03-7.17-1.65-2.32-.52-4.84-1.11-7.48-1.72l-4.75-1.11c-19.7-4.6-54.31-12.81-64.7-16.17-.08-.01-16.82-3.88-41.06-9.73-10.04-2.43-20.51-4.99-31.11-7.61-41.46-10.29-98.36-25.02-133.96-36.75-2.12-.7-2.81-2.6-2.56-4.17.31-1.9,1.81-3.23,3.67-3.23.27,0,.54.03.82.08l212.69,41.95c.34.08.64.12.94.12.68,0,1.34-.19,1.91-.55.85-.54,1.46-1.42,1.68-2.4.15-.67.18-1.69-.52-2.78l-19.21-33.46c-.28-.49-.28-1.06,0-1.53.28-.48.8-.78,1.35-.78.48,0,.92.22,1.22.62l22.38,29.46c1.95,2.94,4.43,5.32,7.4,7.15,3.72,2.28,8,3.48,12.36,3.48,1.88,0,3.76-.23,5.59-.67l37.93-9.19c9.24-2.25,18.78-3.54,28.36-3.83,1.15-.03,2.3-.05,3.45-.06,3.24.01,6.57.15,9.88.41,7.38.57,14.76,1.74,21.94,3.48l37.93,9.19c1.83.44,3.71.67,5.58.67,5.01,0,10-1.64,14.04-4.6,2.24-1.64,4.15-3.65,5.69-5.97l22.42-29.52c.3-.39.75-.61,1.22-.61.55,0,1.07.3,1.35.78.27.47.27,1.05,0,1.53l-19.19,33.42c-.78,1.22-.83,2.6-.17,3.82.66,1.2,1.89,1.95,3.22,1.95.3,0,.6-.04.9-.11l212.73-41.96c.28-.05.55-.08.82-.08,1.85,0,3.36,1.33,3.67,3.23.25,1.57-.44,3.47-2.56,4.17-41.34,13.63-110.21,31.07-160.71,43.31l-4.35,1.06c-24.24,5.85-40.98,9.71-41.14,9.75-10.31,3.34-44.92,11.55-64.62,16.14l-4.76,1.12c-2.64.61-5.15,1.2-7.48,1.72-2.62.62-5.04,1.18-7.16,1.65l-1.26.28c-.87.21-1.7.4-2.47.57-.62.14-1.19.27-1.72.4l-4.2.96-8.72,2.01c-3.51.82-7.15,1.26-10.83,1.32h-.03Z"/>
    <path class="st0" d="M662.68,112.07c2.96,0,3.91,4.43.8,5.46-42.17,13.9-113.9,31.96-160.64,43.28-1.47.36-2.93.71-4.36,1.06-24.51,5.91-41.13,9.75-41.13,9.75-9.72,3.14-40.88,10.61-64.62,16.15l-3.73.88c-3.01.7-5.88,1.37-8.5,1.96-2.63.62-5.05,1.18-7.16,1.65l-1.26.28c-1.6.38-3.01.69-4.2.98l-4.19.95-8.72,2.01c-3.49.81-7.06,1.24-10.62,1.29-3.56-.05-7.13-.48-10.62-1.29l-8.72-2.01-4.19-.95c-1.19-.28-2.6-.59-4.2-.98l-1.26-.28c-2.11-.47-4.53-1.03-7.16-1.65-2.63-.59-5.49-1.26-8.5-1.96l-3.73-.88c-23.74-5.54-54.91-13-64.62-16.15,0,0-16.62-3.83-41.13-9.75-9.38-2.27-19.91-4.84-31.11-7.61-44.36-11.01-99.15-25.28-133.88-36.73-3.12-1.03-2.16-5.46.8-5.46.2,0,.41.02.63.06l27.34,5.39,105.12,20.73,80.23,15.82c.39.09.77.13,1.13.13.91,0,1.74-.26,2.45-.71,2.05-1.31,3.01-4.15,1.47-6.56l-1.47-2.56-17.72-30.86c-.24-.42.11-.82.48-.82.15,0,.3.07.42.22l16.82,22.14,5.56,7.32c2.03,3.06,4.67,5.55,7.67,7.4,3.85,2.35,8.31,3.63,12.88,3.63,1.93,0,3.89-.23,5.82-.7l11.09-2.69,25.29-6.13,1.55-.38c9.26-2.25,18.7-3.51,28.15-3.8,1.14-.03,2.28-.05,3.43-.06,3.27.02,6.54.15,9.8.41,7.31.56,14.6,1.71,21.78,3.46l7.93,1.92,21.64,5.25,8.36,2.03c1.93.47,3.89.7,5.82.7,5.28,0,10.41-1.7,14.63-4.8,2.28-1.67,4.3-3.76,5.93-6.22l22.38-29.47c.12-.15.27-.22.42-.22.37,0,.72.4.48.82l-19.19,33.42c-2.07,3.24.37,7.27,3.92,7.27.37,0,.74-.04,1.13-.13l23.57-4.65,29.9-5.9,131.88-26.01,27.34-5.39c.22-.04.43-.06.63-.06M662.68,110.07h0c-.33,0-.67.03-1.01.1l-27.34,5.39-131.88,26.01-29.9,5.9-23.57,4.65s-.05.01-.07.02c-.23.05-.45.08-.67.08-1.15,0-1.96-.74-2.34-1.43-.23-.42-.68-1.53.11-2.76.02-.03.03-.05.05-.08l19.19-33.42c.46-.8.46-1.75,0-2.54-.46-.79-1.31-1.28-2.22-1.28-.79,0-1.52.36-2.01,1l-22.39,29.48s-.05.07-.07.11c-1.47,2.22-3.3,4.14-5.45,5.71-3.87,2.84-8.64,4.41-13.44,4.41-1.8,0-3.6-.22-5.35-.64l-8.37-2.03-21.64-5.25-7.93-1.92c-7.23-1.76-14.66-2.94-22.09-3.51-3.33-.26-6.68-.4-9.94-.41-1.07,0-2.2.03-3.49.06-9.66.3-19.27,1.6-28.57,3.86l-1.55.38-25.29,6.13-11.09,2.69c-1.75.43-3.55.64-5.35.64-4.18,0-8.27-1.15-11.84-3.33-2.84-1.75-5.22-4.03-7.05-6.8-.02-.04-.05-.07-.07-.1l-5.56-7.32-16.82-22.14c-.49-.64-1.22-1.01-2.01-1.01-.91,0-1.76.49-2.22,1.28-.45.78-.45,1.73,0,2.53l17.72,30.87,1.47,2.56s.03.06.05.08c.51.8.49,1.54.38,2.02-.16.72-.61,1.37-1.24,1.77-.41.26-.88.4-1.37.4-.22,0-.45-.03-.68-.08-.02,0-.05-.01-.07-.01l-80.23-15.82-105.12-20.73-27.34-5.39c-.34-.07-.68-.1-1.01-.1-2.36,0-4.27,1.67-4.66,4.07-.38,2.39.91,4.52,3.23,5.28,35.62,11.75,92.55,26.48,134.03,36.77,10.62,2.63,21.09,5.19,31.12,7.61,23.36,5.64,39.76,9.43,41.07,9.73,10.52,3.39,45.03,11.58,64.7,16.16l3.73.88,1.1.26c2.62.61,5.11,1.19,7.42,1.71,2.83.67,5.18,1.21,7.16,1.65l1.25.28c.87.21,1.7.4,2.48.58.61.14,1.18.27,1.7.39l4.22.96,8.71,2.01c3.58.83,7.29,1.29,11.04,1.34.01,0,.02,0,.03,0s.02,0,.03,0c3.75-.06,7.47-.51,11.05-1.34l8.71-2.01,4.19-.95c.55-.13,1.12-.26,1.73-.4.77-.18,1.61-.37,2.5-.58l1.23-.28c1.98-.44,4.33-.98,7.18-1.66,2.29-.51,4.78-1.09,7.39-1.7l1.11-.26,3.74-.88c19.66-4.59,54.17-12.78,64.7-16.16,1.31-.3,17.71-4.1,41.07-9.73l1.24-.3c1.03-.25,2.07-.5,3.12-.76,50.51-12.23,119.41-29.68,160.79-43.33,2.32-.77,3.62-2.89,3.24-5.28-.39-2.4-2.3-4.07-4.66-4.07h0Z"/>
  </g>
  <g>
    <g>
      <g>
        <path class="st1" d="M226,203.01c-5.98,0-10.85-4.87-10.85-10.85s4.87-10.85,10.85-10.85,10.85,4.87,10.85,10.85-4.87,10.85-10.85,10.85Z"/>
        <path class="st0" d="M226,182.3c5.44,0,9.85,4.41,9.85,9.85s-4.41,9.85-9.85,9.85-9.85-4.41-9.85-9.85,4.41-9.85,9.85-9.85M226,180.3c-6.54,0-11.85,5.32-11.85,11.85s5.32,11.85,11.85,11.85,11.85-5.32,11.85-11.85-5.32-11.85-11.85-11.85h0Z"/>
      </g>
      <g>
        <path class="st1" d="M123.01,245.77c-.32,0-.62-.15-.82-.42l-15.69-22.06-6.4-2.37c-.39-.15-.65-.52-.65-.94v-7.44c0-.46.31-.86.76-.97l95.68-24.04c.08-.02.16-.03.24-.03.25,0,.49.09.67.26.25.23.37.56.31.89l-.84,5.3c-.06.4-.36.73-.76.82l-62.03,14.4-.27,1.01,64.23-15.55.67-6.73c.04-.43.36-.78.78-.88l11.07-2.46,2-.84c2.98-4.95,8.33-8.02,14.04-8.02,1.29,0,2.6.19,4.14.59.32.11,2.5.86,3.12,1.17,2.56,1.02,6.23,2.28,8.69,2.28.27,0,.52-.02.76-.05.05,0,.1-.01.15-.01.35,0,.69.19.87.5.07.13,7.28,13.14-3.07,25.85-.17.21-.42.34-.69.37l-7.03.59c-2.25,1.06-4.58,1.6-6.94,1.6-5.01,0-9.65-2.26-12.81-6.22h-.35s-94.69,18.63-94.69,18.63l5.82,23.52c.12.47-.12.95-.55,1.15-.13.06-.28.09-.42.09ZM226,182.08c-5.56,0-10.08,4.52-10.08,10.08s4.52,10.08,10.08,10.08,10.08-4.52,10.08-10.08-4.52-10.08-10.08-10.08Z"/>
        <path class="st0" d="M226,176.71c1.35,0,2.64.23,3.89.56,0,0,2.35.81,2.93,1.1,2.69,1.08,6.5,2.39,9.14,2.39.32,0,.62-.02.9-.06,0,0,7.06,12.39-2.97,24.73l-7.21.61c-2.03.98-4.27,1.58-6.67,1.58-5.05,0-9.5-2.47-12.32-6.23l-.94.02-95.8,18.84,6.07,24.54-15.86-22.31-6.69-2.48v-7.44l95.68-24.04-.84,5.3-62.62,14.53-.87,3.22,66.55-16.11.74-7.44,11.15-2.48,2.39-1c2.67-4.64,7.62-7.81,13.35-7.81M226,203.23c6.11,0,11.08-4.97,11.08-11.08s-4.97-11.08-11.08-11.08-11.08,4.97-11.08,11.08,4.97,11.08,11.08,11.08M226,174.71c-5.95,0-11.53,3.13-14.72,8.22l-1.63.68-10.98,2.44c-.54.12-.99.45-1.27.9-.36-.3-.81-.46-1.27-.46-.16,0-.33.02-.49.06l-95.68,24.04c-.89.22-1.51,1.02-1.51,1.94v7.44c0,.84.52,1.58,1.31,1.88l6.11,2.26,15.51,21.81c.39.54,1,.84,1.63.84.28,0,.56-.06.83-.18.87-.4,1.34-1.37,1.11-2.3l-5.57-22.5,93.38-18.36c3.34,3.94,8.1,6.18,13.24,6.18,2.45,0,4.87-.54,7.2-1.61l6.85-.58c.54-.05,1.04-.31,1.38-.73,10.78-13.24,3.24-26.84,3.16-26.98-.36-.63-1.03-1.01-1.74-1.01-.1,0-.19,0-.29.02-.18.03-.38.04-.61.04-1.79,0-4.75-.79-8.33-2.22-.72-.33-2.52-.96-3.08-1.16-.05-.02-.1-.03-.15-.04-1.62-.42-3.02-.62-4.39-.62h0ZM226,201.23c-5.01,0-9.08-4.07-9.08-9.08s4.07-9.08,9.08-9.08,9.08,4.07,9.08,9.08-4.07,9.08-9.08,9.08h0Z"/>
      </g>
      <g>
        <path class="st1" d="M102.19,211c-.22,0-.44-.08-.62-.22-.24-.19-.38-.48-.38-.78v-8.06c0-.55.45-1,1-1h4.42v-2.46h-2.37l-.51.51c-.12.12-.27.21-.43.25l-18.5,5.33c-.23.07-.47.1-.72.1-.65,0-1.29-.25-1.8-.69-4.93-4.32-44.75-10.41-59.67-12.39-.52-.07-.9-.53-.87-1.06.04-.53.47-.93,1-.93h73.37c.11,0,.23.02.33.06l10.07,3.54c.24-1.66.8-2.77,1.77-3.61.9-.78,2.1-1.19,3.46-1.19,1.52,0,3.05.52,4.2,1.42,1.26.99,1.56,3.07,1.62,4.42,0,0,52.94-3.85,52.97-3.85.49,0,.91.35.99.84.08.51-.24,1-.74,1.13l-20.15,5.08c-.15.04-.31.06-.48.07l-32.28,1.06.07,1.33,4.9-.86c.06,0,.12-.01.17-.01.2,0,.41.06.58.18.22.15.36.39.41.65l.87,5.02c.09.52-.24,1.03-.76,1.14l-21.69,4.96c-.07.02-.15.03-.22.03Z"/>
        <path class="st0" d="M111.75,189.4c1.28,0,2.61.44,3.58,1.21,1.43,1.12,1.24,4.71,1.24,4.71l53.96-3.92-20.15,5.08c-.09.02-.17.03-.26.04l-33.3,1.1.19,3.47,6.01-1.05.87,5.02-21.69,4.96v-8.06h5.42v-4.46h-3.78l-.81.81-18.5,5.33c-.15.04-.29.06-.44.06-.41,0-.82-.16-1.14-.44-6.24-5.46-60.2-12.63-60.2-12.63h73.37l11.28,3.97c.1-2.05.52-3.34,1.55-4.23.76-.65,1.76-.95,2.8-.95M111.75,187.4s0,0,0,0c-1.61,0-3.03.5-4.11,1.43-1.01.87-1.56,1.95-1.86,3.05l-8.99-3.16c-.21-.07-.44-.11-.66-.11H22.75c-1.05,0-1.93.82-2,1.87-.07,1.05.69,1.98,1.73,2.11,20.63,2.74,54.93,8.46,59.15,12.15.69.6,1.56.94,2.46.94.34,0,.67-.05.99-.14l15.28-4.4c-.11.25-.17.52-.17.81v8.06c0,.61.28,1.18.75,1.56.36.29.8.44,1.25.44.15,0,.3-.02.45-.05l21.69-4.96c1.04-.24,1.71-1.24,1.53-2.29l-.87-5.02c-.02-.12-.05-.23-.09-.34l25.29-.83c.23,0,.46-.04.69-.1l20.15-5.08c1.01-.25,1.65-1.23,1.49-2.26-.16-.98-1-1.68-1.97-1.68-.05,0-.1,0-.15,0l-51.9,3.77c-.18-1.45-.67-3.15-1.92-4.14-1.32-1.04-3.07-1.63-4.82-1.63h0ZM104.66,199.48h.95v.46h-1.46c.1-.07.2-.15.29-.24l.22-.22h0Z"/>
      </g>
      <g>
        <path class="st1" d="M308.93,207.67c-2.63-.08-5.26-.39-7.83-.93l-36.55-7.72-8.31,6.74c-.17.14-.38.21-.59.22,0,0-12.79.5-12.8.5-.39,0-.75-.23-.91-.59-.17-.37-.09-.81.19-1.1.34-.35,8.3-8.82,3.25-22.13-.13-.35-.06-.74.19-1.02.19-.21.46-.33.75-.33.08,0,.17.01.25.03l97.48,25.14c.49.13.81.6.74,1.11-.07.5-.49.86-.99.86,0,0-34.88-.77-34.88-.77Z"/>
        <path class="st0" d="M246.33,182.3l97.48,25.14-34.85-.77c-2.57-.07-5.13-.38-7.64-.91l-37.02-7.82-8.68,7.04-12.77.5s8.82-9.07,3.47-23.18M246.33,180.3c-.56,0-1.11.24-1.49.67-.5.56-.65,1.34-.38,2.04,4.8,12.67-2.72,20.74-3.04,21.08-.56.59-.72,1.46-.38,2.21.32.72,1.04,1.18,1.82,1.18.03,0,.05,0,.08,0l12.77-.5c.43-.02.85-.17,1.18-.45l7.94-6.44,36.08,7.62c2.62.55,5.32.87,8,.95l34.87.78s.03,0,.05,0c1,0,1.84-.73,1.98-1.73.14-1.01-.5-1.96-1.48-2.21l-97.48-25.14c-.17-.04-.33-.06-.5-.06h0Z"/>
      </g>
    </g>
    <g>
      <g>
        <path class="st1" d="M462.69,203.01c-5.98,0-10.85-4.87-10.85-10.85s4.87-10.85,10.85-10.85,10.85,4.87,10.85,10.85-4.87,10.85-10.85,10.85Z"/>
        <path class="st0" d="M462.69,182.3c5.44,0,9.85,4.41,9.85,9.85s-4.41,9.85-9.85,9.85-9.85-4.41-9.85-9.85,4.41-9.85,9.85-9.85M462.69,180.3c-6.54,0-11.85,5.32-11.85,11.85s5.32,11.85,11.85,11.85,11.85-5.32,11.85-11.85-5.32-11.85-11.85-11.85h0Z"/>
      </g>
      <g>
        <path class="st1" d="M565.68,245.77c-.14,0-.28-.03-.42-.09-.44-.2-.67-.68-.55-1.15l5.82-23.52-94.69-18.62h-.35c-3.16,3.95-7.8,6.21-12.81,6.21-2.35,0-4.69-.54-6.94-1.6l-7.03-.59c-.27-.02-.52-.15-.69-.37-10.35-12.72-3.14-25.72-3.07-25.85.18-.32.51-.5.87-.5.05,0,.1,0,.15.01.24.03.49.05.76.05,2.46,0,6.13-1.26,8.76-2.32.54-.27,2.73-1.03,2.97-1.12,1.61-.42,2.92-.61,4.21-.61,5.71,0,11.06,3.06,14.04,8.02l2,.84,11.07,2.46c.42.09.74.45.78.88l.67,6.73,64.22,15.55-.27-1.01-62.04-14.4c-.4-.09-.7-.42-.76-.82l-.84-5.3c-.05-.33.06-.67.31-.89.19-.17.43-.26.67-.26.08,0,.16,0,.24.03l95.68,24.04c.44.11.76.51.76.97v7.44c0,.42-.26.79-.65.94l-6.4,2.37-15.68,22.06c-.19.27-.5.42-.82.42ZM462.69,182.08c-5.56,0-10.08,4.52-10.08,10.08s4.52,10.08,10.08,10.08,10.08-4.52,10.08-10.08-4.52-10.08-10.08-10.08Z"/>
        <path class="st0" d="M462.69,176.71c5.73,0,10.68,3.17,13.35,7.81l2.39,1,11.15,2.48.74,7.44,66.55,16.11-.87-3.22-62.62-14.53-.84-5.3,95.68,24.04v7.44l-6.69,2.48-15.86,22.31,6.07-24.54-95.8-18.84-.94-.02c-2.82,3.76-7.27,6.23-12.32,6.23-2.4,0-4.64-.6-6.67-1.58l-7.21-.61c-10.04-12.33-2.97-24.73-2.97-24.73.28.04.58.06.9.06,2.63,0,6.44-1.31,9.14-2.39.58-.29,2.93-1.1,2.93-1.1,1.25-.33,2.54-.56,3.89-.56M462.69,203.23c6.11,0,11.08-4.97,11.08-11.08s-4.97-11.08-11.08-11.08-11.08,4.97-11.08,11.08,4.97,11.08,11.08,11.08M462.69,174.71c-1.38,0-2.77.2-4.39.62-.05.01-.1.03-.15.04-.56.19-2.36.82-3.08,1.16-3.59,1.43-6.55,2.22-8.33,2.22-.23,0-.43-.01-.61-.04-.1-.01-.19-.02-.29-.02-.71,0-1.38.38-1.74,1.01-.08.14-7.62,13.74,3.16,26.98.34.42.84.68,1.38.73l6.85.58c2.33,1.07,4.75,1.61,7.2,1.61,5.14,0,9.9-2.24,13.24-6.18l93.38,18.36-5.57,22.5c-.23.93.23,1.9,1.11,2.3.27.12.55.18.83.18.63,0,1.25-.3,1.63-.84l15.51-21.81,6.11-2.26c.78-.29,1.31-1.04,1.31-1.88v-7.44c0-.92-.62-1.72-1.51-1.94l-95.68-24.04c-.16-.04-.32-.06-.49-.06-.46,0-.91.16-1.27.46-.28-.45-.73-.78-1.27-.9l-10.98-2.44-1.63-.68c-3.19-5.09-8.77-8.22-14.72-8.22h0ZM462.69,201.23c-5.01,0-9.08-4.07-9.08-9.08s4.07-9.08,9.08-9.08,9.08,4.07,9.08,9.08-4.07,9.08-9.08,9.08h0Z"/>
      </g>
      <g>
        <path class="st1" d="M586.5,211c-.07,0-.15,0-.22-.03l-21.69-4.96c-.52-.12-.85-.62-.76-1.15l.87-5.02c.04-.26.19-.49.41-.65.17-.12.37-.18.58-.18.06,0,.12,0,.17.01l4.9.86.07-1.33-32.28-1.06c-.16,0-.33-.03-.48-.07l-20.15-5.08c-.5-.13-.83-.62-.74-1.13.08-.49.5-.84.99-.84.02,0,52.96,3.85,52.96,3.85.06-1.35.36-3.43,1.62-4.42,1.14-.9,2.67-1.42,4.2-1.42,1.36,0,2.56.41,3.46,1.19.97.84,1.53,1.96,1.77,3.61l10.07-3.54c.11-.04.22-.06.33-.06h73.37c.53,0,.96.41,1,.93.03.53-.34.99-.87,1.06-14.93,1.98-54.74,8.07-59.67,12.39-.51.45-1.15.69-1.8.69-.24,0-.48-.03-.72-.1l-18.5-5.33c-.16-.05-.31-.13-.43-.25l-.51-.51h-2.37v2.46h4.42c.55,0,1,.45,1,1v8.06c0,.3-.14.59-.38.78-.18.14-.4.22-.62.22Z"/>
        <path class="st0" d="M576.94,189.4c1.04,0,2.05.29,2.8.95,1.03.89,1.45,2.18,1.55,4.23l11.28-3.97h73.37s-53.96,7.17-60.2,12.63c-.32.28-.73.44-1.14.44-.15,0-.29-.02-.44-.06l-18.5-5.33-.81-.81h-3.78v4.46h5.42v8.06l-21.69-4.96.87-5.02,6.01,1.05.19-3.47-33.3-1.1c-.09,0-.18-.02-.26-.04l-20.15-5.08,53.96,3.92s-.19-3.58,1.24-4.71c.97-.76,2.3-1.21,3.58-1.21M665.94,190.61h0M576.94,187.4c-1.74,0-3.5.6-4.82,1.63-1.25.98-1.74,2.69-1.92,4.14l-51.9-3.77s-.1,0-.15,0c-.97,0-1.82.71-1.97,1.68-.17,1.02.48,2,1.49,2.26l20.15,5.08c.22.06.46.09.69.1l25.29.83c-.04.11-.07.22-.09.34l-.87,5.02c-.18,1.05.49,2.05,1.53,2.29l21.69,4.96c.15.03.3.05.45.05.45,0,.89-.15,1.25-.44.48-.38.75-.96.75-1.56v-8.06c0-.29-.06-.56-.17-.81l15.28,4.4c.32.09.66.14.99.14.89,0,1.77-.33,2.46-.94,4.21-3.69,38.48-9.41,59.12-12.15.99-.12,1.77-.96,1.77-1.99,0-1.1-.89-2-2-2h-73.38c-.23,0-.45.04-.66.11l-8.99,3.16c-.31-1.1-.86-2.18-1.86-3.05-1.08-.94-2.51-1.43-4.11-1.43h0ZM583.08,199.48h.95l.22.22c.09.09.19.17.29.24h-1.46v-.46h0Z"/>
      </g>
      <g>
        <path class="st1" d="M344.88,208.44c-.5,0-.92-.37-.99-.86-.07-.5.25-.98.74-1.11l97.48-25.14c.08-.02.17-.03.25-.03.28,0,.55.12.75.33.25.28.32.67.19,1.02-5.06,13.35,3.17,22.04,3.25,22.12.29.29.36.73.2,1.1-.16.36-.52.59-.91.59-.01,0-12.8-.5-12.8-.5-.22,0-.42-.09-.59-.22l-8.31-6.74-36.55,7.72c-2.57.54-5.2.85-7.82.93,0,0-34.88.77-34.88.77Z"/>
        <path class="st0" d="M442.36,182.3h0M442.36,182.3c-5.35,14.1,3.47,23.18,3.47,23.18l-12.77-.5-8.68-7.04-37.02,7.82c-2.51.53-5.07.83-7.64.91l-34.85.77,97.48-25.14M442.36,180.3s-.08,0-.13,0c-.14,0-.28.03-.42.07l-97.44,25.13c-.98.25-1.62,1.2-1.48,2.21.14.99.98,1.73,1.98,1.73.01,0,.03,0,.05,0l34.85-.77c2.69-.08,5.38-.4,8.01-.95l36.08-7.62,7.94,6.44c.34.27.75.43,1.18.45l12.77.5s.05,0,.08,0c.79,0,1.5-.46,1.83-1.19.33-.75.18-1.62-.39-2.21-.32-.33-7.8-8.36-3.07-20.98.11-.24.17-.51.17-.8,0-1.1-.88-1.99-1.97-2,0,0-.02,0-.03,0h0ZM442.36,184.3h0,0Z"/>
      </g>
    </g>
  </g>
  <g>
    <g>
      <path class="st1" d="M234.57,146.31c-.06,0-.13,0-.19-.02l-75.48-14.89c-.47-.09-.81-.5-.81-.98V20.13c0-.55.45-1,1-1h29.7c.55,0,1,.45,1,1v92.33l22.64,4.82-.33-97.15c0-.27.1-.52.29-.71.19-.19.44-.29.71-.29h29.8c.55,0,1,.45,1,1v102.23c0,.43-.27.81-.68.95-.1.04-.21.05-.32.05-.31,0-.6-.14-.8-.4l-10.7-14.09c-1.39-1.82-3.48-2.86-5.74-2.86-2.58,0-4.98,1.39-6.28,3.63-1.28,2.21-1.28,4.97,0,7.2l16.05,27.97c.2.34.17.76-.05,1.08-.19.26-.49.42-.81.42Z"/>
      <path class="st0" d="M242.9,20.13v102.23l-10.7-14.09c-1.57-2.07-3.96-3.26-6.54-3.26-2.93,0-5.67,1.58-7.14,4.12-1.46,2.52-1.46,5.66,0,8.2l16.05,27.97-75.48-14.89V20.13h29.7v93.14l24.65,5.25-.34-98.39h29.8M242.9,18.13h-29.8c-.53,0-1.04.21-1.42.59-.38.38-.59.89-.58,1.42l.33,95.91-20.64-4.39V20.13c0-1.1-.9-2-2-2h-29.7c-1.1,0-2,.9-2,2v110.29c0,.96.68,1.78,1.61,1.96l75.48,14.89c.13.03.26.04.39.04.64,0,1.24-.3,1.62-.83.46-.64.5-1.48.11-2.16l-16.05-27.97c-1.1-1.92-1.11-4.3,0-6.21,1.12-1.93,3.19-3.13,5.41-3.13,1.95,0,3.75.9,4.95,2.47l10.7,14.08c.39.51.98.79,1.59.79.21,0,.43-.03.64-.1.81-.27,1.36-1.04,1.36-1.9V20.13c0-1.1-.9-2-2-2h0Z"/>
    </g>
    <g>
      <path class="st1" d="M269.02,146.73c-5.25,0-10.22-2.28-13.65-6.26-.16-.18-.24-.41-.24-.65V42.58c0-.27.11-.53.3-.71l22.84-22.44c.19-.18.44-.29.7-.29h61.95c.55,0,1,.45,1,1v111.9c0,.54-.43.98-.97,1-9.91.28-19.83,1.6-29.5,3.93-.08.02-.16.03-.23.03-.22,0-.44-.07-.62-.21-.24-.19-.38-.48-.38-.79v-19.69h-23.29v25.81c0,.46-.32.86-.76.97l-12.9,3.13c-1.38.34-2.81.51-4.24.51ZM310.21,87.35v-39.26h-23.29v39.26h23.29Z"/>
      <path class="st0" d="M340.92,20.13v111.9c-10.02.28-20,1.62-29.7,3.96v-20.69h-25.29v26.81l-12.9,3.13c-1.31.32-2.66.48-4,.48-5,0-9.68-2.18-12.89-5.91V42.58l22.84-22.44h61.95M285.93,88.35h25.29v-41.26h-25.29v41.26M340.92,18.13h-61.95c-.52,0-1.03.21-1.4.57l-22.84,22.44c-.38.38-.6.89-.6,1.43v97.24c0,.48.17.94.48,1.3,3.61,4.2,8.86,6.61,14.41,6.61,1.51,0,3.02-.18,4.48-.54l12.9-3.12c.9-.22,1.53-1.02,1.53-1.94v-24.81h21.29v18.69c0,.61.28,1.19.76,1.57.36.28.79.43,1.24.43.16,0,.31-.02.47-.06,9.6-2.31,19.45-3.62,29.29-3.9,1.08-.03,1.94-.92,1.94-2V20.13c0-1.1-.9-2-2-2h0ZM287.93,49.09h21.29v37.26h-21.29v-37.26h0Z"/>
    </g>
    <g>
      <path class="st1" d="M419.67,146.73c-1.43,0-2.85-.17-4.25-.51l-13.15-3.19c-.33-.08-.6-.32-.71-.65l-10.59-30.78h-6.13v25.93c0,.31-.14.6-.38.79-.18.14-.4.21-.62.21-.08,0-.16,0-.24-.03l-6.11-1.48c-7.67-1.86-15.56-3.09-23.43-3.66-.52-.04-.93-.47-.93-1V40.13c0-.28.12-.54.32-.73l21.57-19.99c.18-.17.43-.27.68-.27h60.67c.55,0,1,.45,1,1v90.08c0,.55-.45,1-1,1h-14.65l10.7,29.37c.13.37.04.78-.24,1.06-3.36,3.28-7.81,5.08-12.53,5.08ZM405.68,83.04v-34.95h-20.84v34.95h20.84Z"/>
      <path class="st0" d="M436.39,20.13v90.08h-16.08l11.19,30.72c-3.13,3.06-7.36,4.8-11.83,4.8-1.34,0-2.69-.16-4.01-.48l-13.15-3.19-10.82-31.45h-7.84v26.93l-6.11-1.48c-7.74-1.87-15.63-3.11-23.59-3.69V40.13l21.57-19.99h60.67M383.85,84.04h22.84v-36.95h-22.84v36.95M436.39,18.13h-60.67c-.5,0-.99.19-1.36.53l-21.57,19.99c-.41.38-.64.91-.64,1.47v92.24c0,1.05.81,1.92,1.86,1.99,7.81.57,15.64,1.79,23.26,3.64l6.11,1.48c.16.04.31.06.47.06.44,0,.88-.15,1.24-.43.48-.38.76-.96.76-1.57v-24.93h4.42l10.36,30.11c.22.64.76,1.13,1.42,1.29l13.15,3.19c1.47.36,2.98.54,4.48.54,4.98,0,9.68-1.91,13.23-5.37.56-.55.75-1.38.48-2.12l-10.21-28.03h13.22c1.1,0,2-.9,2-2V20.13c0-1.1-.9-2-2-2h0ZM385.85,49.09h18.84v32.95h-18.84v-32.95h0Z"/>
    </g>
    <g>
      <path class="st1" d="M472.94,142.6c-.23,0-.45-.08-.63-.23-.23-.19-.37-.47-.37-.77V48.09h-26.74c-.55,0-1-.45-1-1v-26.95c0-.55.45-1,1-1h84.39c.55,0,1,.45,1,1v26.95c0,.55-.45,1-1,1h-25.75v87.62c0,.48-.34.89-.81.98l-29.9,5.9c-.06.01-.13.02-.19.02Z"/>
      <path class="st0" d="M529.6,20.13v26.95h-26.75v88.62l-29.9,5.9V47.09h-27.74v-26.95h84.39M529.6,18.13h-84.39c-1.1,0-2,.9-2,2v26.95c0,1.1.9,2,2,2h25.74v92.52c0,.6.27,1.17.73,1.55.36.3.81.46,1.27.46.13,0,.26-.01.39-.04l29.9-5.9c.94-.18,1.61-1.01,1.61-1.96V49.09h24.75c1.1,0,2-.9,2-2v-26.95c0-1.1-.9-2-2-2h0Z"/>
    </g>
  </g>
</svg>